<svg xmlns="http://www.w3.org/2000/svg" viewBox="0 0 141 114"><defs><style>.cls-1{fill:#fdda00;}.cls-2{stroke:#fcee21;stroke-miterlimit:10;}</style></defs><g id="Layer_1" data-name="Layer 1"><path class="cls-1" d="M122,64a47.34,47.34,0,0,1-9.21,28.09v0A50.35,50.35,0,0,1,46.21,105l-.9-.57c-.17-.11-.33-.21-.48-.32A48,48,0,0,1,23,64c0-26.7,22.16-48.35,49.5-48.35S122,37.3,122,64Z"/><path class="cls-2" d="M109.31,94h0c-8,11.79-21,19.47-35.81,19.47a42.18,42.18,0,0,1-24.17-7.63h0l.17-1.36s4-17,9-22-1-9-3-7-15-8-15-14V58.27s7-2.77,7-6.77,7-11,9-10a5.72,5.72,0,0,0,4.4-.1l7.6-9.9s5,10,5,12,10.1,7,11.55,24.5,3.45,18.5,1.45,37.5c0,0,9,0,13-6s2-10,2-10l-7-10s-5-7-5-12-1-7,1-12,8-13,8-13,8-2,6,5c0,0-17,13-3,27C101.5,74.5,111.11,87.54,109.31,94Z"/></g></svg>