<svg xmlns="http://www.w3.org/2000/svg" viewBox="0 0 560 560"><defs><style>.cls-1{fill:#fdda00;}.cls-2{stroke:#fcee21;stroke-miterlimit:10;}.cls-3{font-size:53px;fill:#fcee21;font-family:Poppins-ExtraBold, Poppins;font-weight:800;}.cls-4{font-size:18px;fill:#fff;font-family:Poppins-Light, Poppins;font-weight:300;}</style></defs><g id="Layer_2" data-name="Layer 2"><rect width="560" height="560"/></g><g id="Layer_1" data-name="Layer 1"><path class="cls-1" d="M311,207a47.34,47.34,0,0,1-9.21,28.09v0A50.35,50.35,0,0,1,235.21,248l-.9-.57-.48-.32A48,48,0,0,1,212,207c0-26.7,22.16-48.35,49.5-48.35S311,180.3,311,207Z"/><path class="cls-2" d="M298.31,237h0c-8,11.79-21.05,19.47-35.81,19.47a42.18,42.18,0,0,1-24.17-7.63h0l.17-1.36s4-17,9-22-1-9-3-7-15-8-15-14v-3.23s7-2.77,7-6.77,7-11,9-10a5.72,5.72,0,0,0,4.4-.1l7.6-9.9s5,10,5,12,10.1,7,11.55,24.5,3.45,18.5,1.45,37.5c0,0,9,0,13-6s2-10,2-10l-7-10s-5-7-5-12-1-7,1-12,8-13,8-13,8-2,6,5c0,0-17,13-3,27C290.5,217.5,300.11,230.54,298.31,237Z"/><text class="cls-3" transform="translate(143.38 323.22)">SewaJerr</text><text class="cls-4" transform="translate(220.38 376.46)">Since 2021</text></g></svg>